PathFileType   4   (X/Y/Z)
DataRate	CameraRate	NumFrames	NumMarkers	Units	OrigDataRate	OrigDataStartFrame	OrigNumFrames
120.0	120.0	9	37	mm	120.0	79	126
Frame#	Time	midhip	hip_r	hip_l	knee_r	knee_l	ankle_r	ankle_l	midasis	asis_r	asis_l	psis_r	psis_l	epicondLat_r	epicondLat_l	epicondMed_r	epicondMed_l	malleolusLat_r	malleolusLat_l	malleolusMedv_r	malleolusMedv_l	neck	subclavicle_r	subclavicle_l	sternalnotch	xyphoidprocess	thighwand_r	thighwand_l	upperleg1_r	upperleg1_l	upperleg2_r	upperleg2_l	shankwand_r	shankwand_l	lowerleg1_r	lowerleg1_l	toe_r	toe_l
 	 	X1	Y1	Z1	X2	Y2	Z2	X3	Y3	Z3	X4	Y4	Z4	X5	Y5	Z5	X6	Y6	Z6	X7	Y7	Z7	X8	Y8	Z8	X9	Y9	Z9	X10	Y10	Z10	X11	Y11	Z11	X12	Y12	Z12	X13	Y13	Z13	X14	Y14	Z14	X15	Y15	Z15	X16	Y16	Z16	X17	Y17	Z17	X18	Y18	Z18	X19	Y19	Z19	X20	Y20	Z20	X21	Y21	Z21	X22	Y22	Z22	X23	Y23	Z23	X24	Y24	Z24	X25	Y25	Z25	X26	Y26	Z26	X27	Y27	Z27	X28	Y28	Z28	X29	Y29	Z29	X30	Y30	Z30	X31	Y31	Z31	X32	Y32	Z32	X33	Y33	Z33	X34	Y34	Z34	X35	Y35	Z35	X36	Y36	Z36	X37	Y37	Z37

	79	0.80000	2047.511	893.667	-233.241	2057.167	884.847	-182.499	2036.812	880.633	-287.022	2157.607	488.845	-199.675	2055.359	463.085	-327.727	2121.974	69.762	-188.088	1741.002	186.404	-303.146	2122.546	980.305	-253.408	2142.233	984.381	-152.312	2102.858	976.230	-354.504	1931.471	1006.497	-181.651	1915.956	1002.400	-265.068	2172.863	490.221	-142.180	2043.730	468.235	-385.852	2138.394	502.161	-255.946	2073.586	454.345	-274.601	2124.818	70.568	-150.203	1731.696	193.627	-340.849	2118.570	76.097	-220.405	1757.425	189.823	-276.213	1965.898	1458.014	-204.501	2077.815	1384.685	-136.421	2058.990	1398.479	-291.033	2055.642	1392.496	-216.099	2102.190	1195.156	-246.194	2188.703	597.627	-58.732	2198.947	591.778	-371.411	2188.743	662.115	-128.234	2114.160	649.699	-383.514	2198.493	582.378	-155.202	2109.542	562.233	-380.781	2156.161	146.288	-88.517	1892.299	186.888	-327.813	2133.591	204.507	-146.033	1884.532	269.035	-326.199	2244.434	42.461	-217.237	1787.571	70.720	-314.361
	80	0.80833	2056.022	894.982	-232.818	2065.915	886.177	-182.403	2045.650	882.303	-286.957	2159.909	488.623	-198.975	2072.066	464.957	-327.906	2122.000	69.724	-187.892	1761.493	184.932	-302.246	2131.437	981.800	-252.958	2151.024	985.544	-151.896	2111.849	978.055	-354.019	1940.018	1007.988	-181.504	1924.834	1004.049	-265.083	2175.665	489.957	-141.615	2060.557	469.935	-386.069	2140.905	502.082	-255.217	2090.268	456.151	-275.113	2124.869	70.466	-150.008	1751.952	192.063	-339.907	2118.709	76.236	-220.368	1778.200	187.815	-275.417	1975.007	1459.464	-204.354	2086.975	1386.140	-136.494	2067.927	1400.037	-291.053	2064.687	1394.002	-216.126	2111.216	1196.689	-246.425	2193.864	597.538	-58.686	2213.567	596.090	-371.048	2194.056	661.911	-128.428	2127.861	652.432	-383.490	2202.708	581.906	-155.236	2124.814	564.824	-380.924	2156.662	145.968	-88.242	1912.596	187.054	-327.519	2134.292	204.369	-145.605	1903.835	268.983	-325.754	2244.447	42.443	-217.127	1812.291	71.559	-317.451
	81	0.81667	2064.454	896.180	-232.666	2074.566	887.400	-182.241	2054.446	883.924	-286.837	2162.179	488.428	-198.265	2088.585	466.911	-328.065	2122.002	69.702	-187.751	1782.568	182.741	-301.507	2140.276	983.217	-252.357	2159.706	986.574	-151.348	2120.846	979.860	-353.365	1948.560	1009.343	-181.406	1933.655	1005.670	-265.172	2178.370	489.684	-141.024	2077.151	471.728	-386.257	2143.384	501.956	-254.472	2106.952	457.985	-275.566	2124.909	70.374	-149.868	1772.725	189.828	-339.099	2118.853	76.330	-220.278	1799.419	185.356	-274.755	1984.049	1460.843	-204.062	2096.101	1387.537	-136.568	2076.793	1401.510	-291.104	2073.678	1395.435	-216.167	2120.199	1198.147	-246.642	2198.812	597.379	-58.575	2227.963	600.429	-370.777	2199.241	661.561	-128.573	2141.255	655.130	-383.524	2206.795	581.388	-155.183	2139.874	567.412	-381.083	2157.172	145.650	-88.014	1933.307	186.986	-327.553	2134.930	204.284	-145.340	1923.330	268.654	-325.425	2244.467	42.451	-217.002	1837.571	72.092	-320.082
	82	0.82500	2072.772	897.173	-232.776	2083.132	888.517	-182.022	2063.216	885.472	-286.670	2164.428	488.257	-197.544	2104.925	468.941	-328.214	2121.988	69.713	-187.668	1804.205	179.890	-300.948	2149.071	984.547	-251.630	2168.283	987.484	-150.685	2129.859	981.609	-352.574	1957.143	1010.560	-181.367	1942.435	1007.231	-265.321	2180.997	489.406	-140.409	2093.533	473.606	-386.426	2145.809	501.935	-253.705	2123.335	460.040	-275.929	2124.947	70.307	-149.788	1794.005	186.965	-338.447	2118.944	76.445	-220.165	1821.077	182.564	-274.198	1993.063	1462.132	-203.815	2105.201	1388.868	-136.669	2085.592	1402.923	-291.144	2082.623	1396.805	-216.213	2129.150	1199.550	-246.893	2203.584	597.161	-58.373	2242.151	604.771	-370.579	2204.344	661.167	-128.582	2154.535	657.862	-383.622	2210.774	580.879	-155.014	2154.707	570.096	-381.244	2157.707	145.333	-87.833	1954.439	186.730	-327.888	2135.624	204.249	-145.136	1943.042	268.138	-325.178	2244.488	42.488	-216.873	1863.375	72.326	-322.270
	83	0.83333	2081.073	898.028	-233.168	2091.625	889.524	-181.765	2071.972	886.924	-286.475	2166.674	488.096	-196.812	2121.083	471.030	-328.352	2121.979	69.758	-187.639	1826.384	176.439	-300.576	2157.828	985.776	-250.812	2176.762	988.281	-149.931	2138.893	983.271	-351.694	1965.804	1011.638	-181.405	1951.182	1008.699	-265.515	2183.548	489.112	-139.764	2109.718	475.551	-386.581	2148.052	502.008	-252.912	2139.257	462.276	-276.323	2124.995	70.266	-149.763	1815.788	183.513	-337.964	2119.016	76.688	-220.110	1843.146	179.443	-273.758	2002.053	1463.300	-203.717	2114.276	1390.102	-136.810	2094.351	1404.304	-291.210	2091.535	1398.106	-216.289	2138.129	1200.914	-247.270	2208.166	596.883	-58.075	2256.140	609.089	-370.405	2209.234	660.765	-128.444	2167.711	660.629	-383.801	2214.559	580.348	-154.776	2169.294	572.877	-381.458	2158.256	145.010	-87.688	1976.017	186.341	-328.463	2136.408	204.258	-144.746	1963.037	267.525	-325.132	2244.505	42.549	-216.748	1889.653	72.277	-324.003
	84	0.84167	2089.532	898.934	-233.789	2100.054	890.415	-181.493	2080.721	888.257	-286.272	2168.956	487.931	-196.071	2137.048	473.148	-328.472	2121.998	69.827	-187.661	1849.070	172.451	-300.376	2166.549	986.890	-249.944	2185.154	988.967	-149.110	2147.945	984.814	-350.777	1974.514	1012.584	-181.525	1959.896	1010.039	-265.734	2186.038	488.791	-139.083	2125.717	477.532	-386.718	2150.156	502.004	-252.015	2154.934	464.495	-276.830	2125.056	70.245	-149.787	1838.057	179.515	-337.647	2119.073	76.905	-220.013	1865.600	175.939	-273.503	2010.989	1464.381	-203.612	2123.320	1391.238	-136.968	2103.054	1405.590	-291.313	2100.403	1399.311	-216.391	2147.057	1202.182	-247.679	2212.525	596.532	-57.667	2269.930	613.344	-370.193	2213.896	660.296	-128.205	2180.726	663.366	-384.024	2218.146	579.734	-154.434	2183.724	575.647	-381.731	2158.800	144.673	-87.559	1998.016	185.853	-329.199	2137.231	204.231	-144.329	1983.505	266.863	-325.318	2244.519	42.619	-216.632	1916.368	71.946	-325.274
	85	0.85000	2098.081	899.855	-234.396	2108.425	891.178	-181.229	2089.466	889.447	-286.085	2171.339	487.759	-195.329	2152.821	475.263	-328.559	2122.067	69.912	-187.718	1872.228	167.996	-300.304	2175.236	987.872	-249.063	2193.465	989.537	-148.249	2157.007	986.207	-349.876	1983.154	1013.408	-181.713	1968.576	1011.224	-265.975	2188.506	488.445	-138.364	2141.549	479.514	-386.827	2152.477	501.929	-251.018	2170.419	466.651	-277.438	2125.148	70.238	-149.844	1860.794	175.022	-337.454	2119.118	77.027	-219.893	1888.439	172.098	-273.385	2019.877	1465.379	-203.522	2132.346	1392.251	-137.219	2111.695	1406.736	-291.449	2109.231	1400.388	-216.552	2155.879	1203.306	-248.142	2216.650	596.099	-57.138	2283.537	617.508	-369.892	2218.445	659.814	-127.757	2193.614	666.040	-384.265	2221.706	579.031	-153.880	2198.052	578.378	-382.037	2159.344	144.307	-87.445	2020.399	185.268	-329.999	2137.979	204.100	-143.971	2004.244	266.003	-325.558	2244.537	42.679	-216.533	1943.515	71.366	-326.144
	86	0.85833	2106.549	900.606	-234.838	2116.744	891.810	-180.991	2098.205	890.476	-285.928	2173.857	487.560	-194.609	2168.413	477.347	-328.593	2122.203	70.000	-187.778	1895.838	163.161	-300.296	2183.886	988.711	-248.199	2201.700	989.992	-147.363	2166.072	987.429	-349.035	1991.662	1014.106	-181.956	1977.226	1012.234	-266.244	2190.976	488.059	-137.627	2157.237	481.468	-386.889	2155.096	501.962	-250.104	2185.344	468.835	-278.029	2125.287	70.238	-149.904	1883.991	170.103	-337.333	2119.226	77.132	-219.857	1912.222	167.907	-273.514	2028.782	1466.231	-203.510	2141.364	1393.097	-137.547	2120.316	1407.726	-291.664	2118.044	1401.307	-216.790	2164.636	1204.262	-248.694	2220.548	595.587	-56.495	2296.971	621.569	-369.460	2223.085	659.281	-127.085	2206.446	668.648	-384.501	2225.334	578.256	-153.146	2212.156	581.054	-382.313	2159.902	143.902	-87.342	2043.133	184.591	-330.757	2138.671	203.918	-143.614	2025.268	265.090	-325.939	2244.559	42.712	-216.454	1971.119	70.637	-326.702
	87	0.86667	2115.062	901.317	-235.192	2125.010	892.309	-180.790	2106.936	891.339	-285.812	2176.521	487.318	-193.922	2183.829	479.376	-328.563	2122.370	70.063	-187.818	1919.870	158.047	-300.297	2192.495	989.404	-247.372	2209.861	990.337	-146.461	2175.129	988.471	-348.282	2000.063	1014.673	-182.253	1985.840	1013.069	-266.547	2193.463	487.623	-136.886	2172.796	483.370	-386.895	2157.805	501.928	-249.300	2199.571	471.140	-278.222	2125.448	70.217	-149.943	1907.639	164.845	-337.236	2119.313	77.171	-219.845	1936.460	163.453	-273.659	2037.723	1466.972	-203.523	2150.336	1393.767	-137.900	2128.897	1408.536	-291.956	2126.816	1402.057	-217.078	2173.192	1205.006	-249.263	2224.240	595.011	-55.745	2310.225	625.521	-368.857	2227.695	658.509	-126.298	2219.172	671.125	-384.670	2228.917	577.307	-152.335	2225.895	583.592	-382.370	2160.480	143.458	-87.242	2066.159	183.832	-331.370	2139.475	203.728	-143.397	2046.643	264.200	-326.484	2244.586	42.711	-216.395	1999.156	69.837	-327.018
